<mxfile host="app.diagrams.net" modified="2022-01-21T04:14:54.848Z" agent="5.0 (Windows NT 10.0; Win64; x64) AppleWebKit/537.36 (KHTML, like Gecko) Chrome/97.0.4692.99 Safari/537.36" etag="66G4U0kHZztFeZsAmY_m" version="16.4.3" type="github">
  <diagram id="KD1eyQNDY4JHJ3Qhar2S" name="Page-1">
    <mxGraphModel dx="1102" dy="614" grid="1" gridSize="10" guides="1" tooltips="1" connect="1" arrows="1" fold="1" page="1" pageScale="1" pageWidth="827" pageHeight="1169" math="0" shadow="0">
      <root>
        <mxCell id="0" />
        <mxCell id="1" parent="0" />
        <mxCell id="qFFawV79IBjwhiMdcbTs-1" style="rounded=0;orthogonalLoop=1;jettySize=auto;html=1;exitX=0.25;exitY=0;exitDx=0;exitDy=0;entryX=0.783;entryY=0.988;entryDx=0;entryDy=0;entryPerimeter=0;" edge="1" parent="1" source="qFFawV79IBjwhiMdcbTs-9" target="qFFawV79IBjwhiMdcbTs-10">
          <mxGeometry relative="1" as="geometry" />
        </mxCell>
        <mxCell id="qFFawV79IBjwhiMdcbTs-2" style="edgeStyle=none;rounded=0;orthogonalLoop=1;jettySize=auto;html=1;exitX=0.5;exitY=0;exitDx=0;exitDy=0;entryX=0.417;entryY=1.038;entryDx=0;entryDy=0;entryPerimeter=0;" edge="1" parent="1" source="qFFawV79IBjwhiMdcbTs-9" target="qFFawV79IBjwhiMdcbTs-11">
          <mxGeometry relative="1" as="geometry" />
        </mxCell>
        <mxCell id="qFFawV79IBjwhiMdcbTs-3" style="edgeStyle=none;rounded=0;orthogonalLoop=1;jettySize=auto;html=1;exitX=1;exitY=0;exitDx=0;exitDy=0;entryX=0.075;entryY=0.85;entryDx=0;entryDy=0;entryPerimeter=0;" edge="1" parent="1" source="qFFawV79IBjwhiMdcbTs-9" target="qFFawV79IBjwhiMdcbTs-12">
          <mxGeometry relative="1" as="geometry" />
        </mxCell>
        <mxCell id="qFFawV79IBjwhiMdcbTs-4" style="edgeStyle=none;rounded=0;orthogonalLoop=1;jettySize=auto;html=1;exitX=1;exitY=0.5;exitDx=0;exitDy=0;entryX=0.021;entryY=0.378;entryDx=0;entryDy=0;entryPerimeter=0;" edge="1" parent="1" source="qFFawV79IBjwhiMdcbTs-9" target="qFFawV79IBjwhiMdcbTs-16">
          <mxGeometry relative="1" as="geometry" />
        </mxCell>
        <mxCell id="qFFawV79IBjwhiMdcbTs-5" style="edgeStyle=none;rounded=0;orthogonalLoop=1;jettySize=auto;html=1;exitX=1;exitY=1;exitDx=0;exitDy=0;entryX=0.225;entryY=0.075;entryDx=0;entryDy=0;entryPerimeter=0;" edge="1" parent="1" source="qFFawV79IBjwhiMdcbTs-9" target="qFFawV79IBjwhiMdcbTs-15">
          <mxGeometry relative="1" as="geometry" />
        </mxCell>
        <mxCell id="qFFawV79IBjwhiMdcbTs-6" style="edgeStyle=none;rounded=0;orthogonalLoop=1;jettySize=auto;html=1;exitX=0.5;exitY=1;exitDx=0;exitDy=0;entryX=0.5;entryY=0;entryDx=0;entryDy=0;" edge="1" parent="1" source="qFFawV79IBjwhiMdcbTs-9" target="qFFawV79IBjwhiMdcbTs-14">
          <mxGeometry relative="1" as="geometry" />
        </mxCell>
        <mxCell id="qFFawV79IBjwhiMdcbTs-7" style="edgeStyle=none;rounded=0;orthogonalLoop=1;jettySize=auto;html=1;exitX=0;exitY=1;exitDx=0;exitDy=0;" edge="1" parent="1" source="qFFawV79IBjwhiMdcbTs-9" target="qFFawV79IBjwhiMdcbTs-18">
          <mxGeometry relative="1" as="geometry" />
        </mxCell>
        <mxCell id="qFFawV79IBjwhiMdcbTs-8" style="edgeStyle=none;rounded=0;orthogonalLoop=1;jettySize=auto;html=1;exitX=0;exitY=0.5;exitDx=0;exitDy=0;" edge="1" parent="1" source="qFFawV79IBjwhiMdcbTs-9" target="qFFawV79IBjwhiMdcbTs-13">
          <mxGeometry relative="1" as="geometry" />
        </mxCell>
        <mxCell id="qFFawV79IBjwhiMdcbTs-9" value="Book" style="rounded=0;whiteSpace=wrap;html=1;" vertex="1" parent="1">
          <mxGeometry x="344" y="200" width="120" height="60" as="geometry" />
        </mxCell>
        <mxCell id="qFFawV79IBjwhiMdcbTs-10" value="&lt;u&gt;Book ID&lt;/u&gt;" style="ellipse;whiteSpace=wrap;html=1;" vertex="1" parent="1">
          <mxGeometry x="204" y="70" width="120" height="80" as="geometry" />
        </mxCell>
        <mxCell id="qFFawV79IBjwhiMdcbTs-11" value="Author&#39;s first name" style="ellipse;whiteSpace=wrap;html=1;" vertex="1" parent="1">
          <mxGeometry x="384" y="40" width="120" height="80" as="geometry" />
        </mxCell>
        <mxCell id="qFFawV79IBjwhiMdcbTs-12" value="Author&#39;s surname" style="ellipse;whiteSpace=wrap;html=1;" vertex="1" parent="1">
          <mxGeometry x="524" y="100" width="120" height="80" as="geometry" />
        </mxCell>
        <mxCell id="qFFawV79IBjwhiMdcbTs-13" value="title" style="ellipse;whiteSpace=wrap;html=1;" vertex="1" parent="1">
          <mxGeometry x="94" y="180" width="120" height="80" as="geometry" />
        </mxCell>
        <mxCell id="qFFawV79IBjwhiMdcbTs-14" value="price" style="ellipse;whiteSpace=wrap;html=1;" vertex="1" parent="1">
          <mxGeometry x="334" y="360" width="120" height="80" as="geometry" />
        </mxCell>
        <mxCell id="qFFawV79IBjwhiMdcbTs-15" value="description of the book" style="ellipse;whiteSpace=wrap;html=1;" vertex="1" parent="1">
          <mxGeometry x="514" y="330" width="120" height="80" as="geometry" />
        </mxCell>
        <mxCell id="qFFawV79IBjwhiMdcbTs-16" value="" style="ellipse;whiteSpace=wrap;html=1;" vertex="1" parent="1">
          <mxGeometry x="594" y="220" width="140" height="90" as="geometry" />
        </mxCell>
        <mxCell id="qFFawV79IBjwhiMdcbTs-17" value="When book is on sale" style="ellipse;whiteSpace=wrap;html=1;" vertex="1" parent="1">
          <mxGeometry x="604" y="225" width="120" height="80" as="geometry" />
        </mxCell>
        <mxCell id="qFFawV79IBjwhiMdcbTs-18" value="publication year" style="ellipse;whiteSpace=wrap;html=1;" vertex="1" parent="1">
          <mxGeometry x="164" y="300" width="120" height="80" as="geometry" />
        </mxCell>
      </root>
    </mxGraphModel>
  </diagram>
</mxfile>
